<svg id="Layer_1" data-name="Layer 1" xmlns="http://www.w3.org/2000/svg" viewBox="0 0 110 110"><path d="M105.51,26.33c0-.71-.4-1-1.08-.78-1,.31-2,.64-3.05,1A43.86,43.86,0,0,1,89,28.86a21.08,21.08,0,0,1-10.07-2.38A5.41,5.41,0,0,0,75.3,26a3,3,0,0,0-2.09,1.73c-.18.34-.45.35-.7,0a7,7,0,0,0-.58-.74,22.87,22.87,0,0,0-10.16-6,.87.87,0,0,1-.68-1.13c.06-.28.15-.61-.2-.76a.62.62,0,0,0-.81.28c-.12.2-.25.39-.35.6s-.25.36-.53.28-.54-.09-.8-.16c-.65-.16-.68-.26-.32-.84a3,3,0,0,0,.53-.92c.06-.21.13-.41-.11-.55a.5.5,0,0,0-.64,0,2.68,2.68,0,0,0-.71.86,1.47,1.47,0,0,1-1.8.93c-1.14-.22-1.16-.12-1.33-1.26-.05-.3-.15-.59-.53-.58s-.51.3-.49.65a1.2,1.2,0,0,1,0,.19c0,1,0,1.07-1,1.24-1.2.21-2.41.33-3.6.56-4.65.92-8.7,2.9-11.7,6.71-.52.66-.64.65-1.14,0a2.17,2.17,0,0,1-.19-.33A2.32,2.32,0,0,0,33,25.41a5.84,5.84,0,0,0-1.61.27c-.75.25-1.5.51-2.27.71a18.53,18.53,0,0,1-2.35.37c-.8.1-1.59.08-2.39.12a13.28,13.28,0,0,1-2.19-.12C18.77,26.44,15.4,25.61,12,25c-2.08-.37-4.08-1-6.11-1.6a1.15,1.15,0,0,0-1.23.22c-.29.35-.12.8.07,1.18C5.24,25.91,5.82,27,6.43,28a82.5,82.5,0,0,0,8.31,12.31,43.23,43.23,0,0,0,3.86,4,14.41,14.41,0,0,0,3.61,2.28,1.87,1.87,0,0,1,1.18.56,1.68,1.68,0,0,1,.29.1,17.69,17.69,0,0,0,7,1.35l3.89.12c.17,0,.45-.07.38.24a2.23,2.23,0,0,1-.64,1.4A6.13,6.13,0,0,0,32.33,53a8.28,8.28,0,0,0-.74,6.37.74.74,0,0,1-.17.7,34,34,0,0,0-2,3.42A4.56,4.56,0,0,0,29,66.63a12.48,12.48,0,0,0,.4,1.45,1.3,1.3,0,0,1,0,.73A14.29,14.29,0,0,1,28.33,72a33.58,33.58,0,0,0-2.66,6.2A15,15,0,0,0,25,84.67a10,10,0,0,0,1.41,3.72c1.46,2.44,3.83,3.09,6.41,3.28a33.83,33.83,0,0,0,4.27-.1c2.4-.11,4.8-.28,7.2-.48a54.22,54.22,0,0,1,6.2-.41,20.07,20.07,0,0,1,4.43.41c.7.12,1.23.11,1.52-.65.15-.4.44-.43.79-.19A12.27,12.27,0,0,0,64,92.33a49.52,49.52,0,0,0,7.89-.44,32.35,32.35,0,0,1,8.44-.55,3,3,0,0,0,2.72-.9,8.74,8.74,0,0,0,2.26-2.79,7.86,7.86,0,0,0-.1-5.05,20.31,20.31,0,0,0-4.89-9.07c-1-1-1-1.61-.06-2.7a3.34,3.34,0,0,0,.28-4.56c-.33-.5-.87-.91-.87-1.57a3.41,3.41,0,0,0-.76-2.21,1.34,1.34,0,0,1-.15-1.9A1.08,1.08,0,0,0,78.9,60c.25-2.83-.18-5-2.63-6.5a.66.66,0,0,1-.36-.6c0-.73-.06-1.46-.1-2.19a2.15,2.15,0,0,0-1-1.71c-.21-.14-.68-.08-.56-.45s.51-.15.79-.14a2,2,0,0,1,.24.05,22.7,22.7,0,0,0,5.59.6,19.39,19.39,0,0,0,9.26-3.16,32.58,32.58,0,0,0,7.36-7,68.3,68.3,0,0,0,7.32-10.61A3.87,3.87,0,0,0,105.51,26.33Zm-71.21,21c-.11.14-.28.12-.46.09a20.15,20.15,0,0,1-3.64-1.12,36.53,36.53,0,0,1-6.53-3.41,1,1,0,0,1-.4-.43,2.64,2.64,0,0,1-.67-.4.73.73,0,0,1-.33-.18A109.35,109.35,0,0,1,8.44,28.77,1,1,0,0,1,8.09,28c1.22.37,2.41.71,3.59,1.09,2.73.87,5.43,1.77,8.21,2.48a22,22,0,0,0,8.35.6c1.2-.16,1.67.29,1.66,1.51a21.16,21.16,0,0,0,1,7.37,18.72,18.72,0,0,0,2.84,5.14q.27.34.51.72C34.3,47,34.44,47.18,34.3,47.35Zm-2,13.52a3.82,3.82,0,0,1,1.63.34,4.84,4.84,0,0,1,2.95,3.65,4.15,4.15,0,0,1-1,3.66,19.84,19.84,0,0,0-1.5-3.59A4,4,0,0,0,32,63c-.39-.13-.94-.12-.91-.74A1.74,1.74,0,0,1,32.32,60.87Zm2.7,8c0,1.14-.68,2-1.53,2a1.77,1.77,0,0,1-1.34-2.13c0-.16,0-.33.05-.5a1.62,1.62,0,0,1,1.26-1.24A1.71,1.71,0,0,1,34.87,68,1.88,1.88,0,0,1,35,68.83Zm-4.39-5.16a1.18,1.18,0,0,1,1.71.27,2.12,2.12,0,0,1,.5,1.64,2.51,2.51,0,0,1-.26,1.26,1.38,1.38,0,0,1-1.41.82,1.25,1.25,0,0,1-1.12-.77A2.52,2.52,0,0,1,30.63,63.67ZM56.81,85.19a24,24,0,0,1-1.07,3.53A1.58,1.58,0,0,1,54,89.89c-4.68-.49-9.36,0-14,.15-1.13,0-2.23.3-3.36.23s-2.25-.13-3.38-.22c-2.1-.18-3.73-1-4.47-3.11a9.88,9.88,0,0,1-.56-2.63c-.17-2.55-.24-5.1.84-7.52.2-.46.42-.91.64-1.36s.41-.41.69-.11c.52.54,1.05,1.07,1.55,1.64a6.67,6.67,0,0,0,2.58,1.71c.17.07.41.18.53,0s-.09-.32-.2-.45C33.86,77.16,32.88,76.13,32,75a8.82,8.82,0,0,1-1.8-5.49.48.48,0,0,1,.41-.55c.37-.06.47.19.52.49a3.52,3.52,0,0,0,.7,1.52,1.58,1.58,0,0,0,1.82.61,5.39,5.39,0,0,0,2.85-1.73,16.32,16.32,0,0,0,1.53-2A3.44,3.44,0,0,0,38.44,65a8.92,8.92,0,0,0-2.39-4.79,4.43,4.43,0,0,0-1.49-.78,3.27,3.27,0,0,1-1.43-4.57,1.48,1.48,0,0,1,2.49.15c.45.9.93,1.78,1.43,2.64a9.32,9.32,0,0,0,7.89,4.71,37.75,37.75,0,0,0,10.6-.77c.74-.16.86-.07,1,.7a88.66,88.66,0,0,1,.94,9.05c.1,1.44.11,2.89.12,4.33A45.73,45.73,0,0,1,56.81,85.19Zm-21-34.69c0-.17,0-.4.24-.47s.38.13.51.28A16.49,16.49,0,0,0,39,52.78a13.86,13.86,0,0,0,4.76,2.15,21.38,21.38,0,0,0,8.08.57c1.42-.12,2.82-.33,4.22-.57.4-.07.54,0,.62.44a12.14,12.14,0,0,1,.13,2.25v.25c0,2.64,0,2.08-2.09,2.53a21.34,21.34,0,0,1-9.14-.08A16.88,16.88,0,0,1,39.7,57.8,11.22,11.22,0,0,1,37,55.28,7.66,7.66,0,0,1,35.85,50.5ZM80,66.81a3.1,3.1,0,0,1,.46,1.68,2.38,2.38,0,0,1-.63,1.84,1.31,1.31,0,0,1-2.07-.07,3.11,3.11,0,0,1,.06-3.68A1.34,1.34,0,0,1,80,66.81ZM77.44,71a2.18,2.18,0,0,1-.5,1.51,1,1,0,0,1-1.69-.06,2.59,2.59,0,0,1,0-2.94,1,1,0,0,1,1.61-.06A2.33,2.33,0,0,1,77.44,71Zm1.44-6.5c.06.24.09.47-.13.62-1.54,1.11-2.49,2.74-3.67,4.17a3.25,3.25,0,0,1-.64.59c-.49.31-.83.16-.94-.41,0-.29-.06-.58-.1-.94a9.59,9.59,0,0,1,2.32-5.74,1.27,1.27,0,0,1,2,0A3.77,3.77,0,0,1,78.88,64.48Zm-3.12-9.74c.62-.05,1,.56,1.23,1a6.73,6.73,0,0,1,.47,4.4.85.85,0,0,1-.71.77,5.59,5.59,0,0,0-4.34,3.91l-.4,1c-.82,2.24-.11,4.14,1.32,5.87a13.73,13.73,0,0,0,1.37,1.38,2.16,2.16,0,0,0,3.1,0c.3-.25.57-.53.9-.84a3.09,3.09,0,0,1-.46,3.37c-.76.84-1.62,1.58-2.43,2.37-.19.18-.45.34-.27.68s.45.29.76.2a5.51,5.51,0,0,0,3-2.11,1.74,1.74,0,0,1,.46-.52A12.53,12.53,0,0,1,82,81.28,12.08,12.08,0,0,1,81.56,89a1.37,1.37,0,0,1-1.11.9,24.14,24.14,0,0,1-2.82.19c-2.46.23-4.9.62-7.37.71-1.54.05-3.05-.22-4.57-.25a24.94,24.94,0,0,1-5.78-.66,5.36,5.36,0,0,1-1.47-.52c-.55-.31-.66-.66-.29-1.18,2.08-3,2.55-6.32,2.39-9.79A56.78,56.78,0,0,0,59,68.56c-.47-2.06-.8-4.15-1.09-6.24-.08-.55,0-.71.62-.65a37.52,37.52,0,0,0,8.86-.07,9.59,9.59,0,0,0,7.07-5.8A1.48,1.48,0,0,1,75.76,54.74Zm-1.2-4.28c.21,1.83.17,3.54-1.26,5a14,14,0,0,1-6.11,3.37,21.3,21.3,0,0,1-5.48.91c-.5,0-1,0-1.51,0v.07l-1.62-.1c-.4,0-.59-.13-.43-.58a5.69,5.69,0,0,0,0-3.88c-.16-.44.09-.62.45-.58,1,.11,2-.07,3,0a12.26,12.26,0,0,0,7.38-1.49A13.74,13.74,0,0,0,73,49.94a.66.66,0,0,1,.77-.27C74.13,49.81,74.51,50,74.56,50.46ZM95.21,37.77a42,42,0,0,1-7.46,5.62,30.63,30.63,0,0,1-10.32,3.9,23,23,0,0,1-2.5.2c-.11,0-.27,0-.34-.09s0-.27.15-.37c1.47-1.58,2.17-3.58,3-5.51a19.29,19.29,0,0,0,1.17-5.67,2.79,2.79,0,0,1,.26-1,.82.82,0,0,1,1-.51,23.43,23.43,0,0,0,7,.28c4.78-.18,9.22-1.68,13.6-3.45l.58-.19A60.74,60.74,0,0,1,95.21,37.77Zm8.49-9.87c-.17.59-1.54,1.5-1.94,1.73a24.19,24.19,0,0,1-5.78,2A48,48,0,0,1,80.59,33c-.79,0-1.58-.16-2.37-.25-.58-.06-.76.11-.63.65a3.75,3.75,0,0,1-.93,3.82A6.75,6.75,0,0,0,75,40.92a21.28,21.28,0,0,1-2.24,6.79,9.75,9.75,0,0,1-4.64,4.17A12.31,12.31,0,0,1,63,53.29a8.06,8.06,0,0,1-2.53-.4,1.5,1.5,0,0,0-1.26,0,11.25,11.25,0,0,1-2.48.88,5.37,5.37,0,0,1-3.53-.55,5,5,0,0,0-3.28-.3,17.81,17.81,0,0,1-7.58-.5c-3.61-.91-5.86-3.35-7.32-6.67a20,20,0,0,1-1.43-5.25A11.27,11.27,0,0,0,32,36.18a2.9,2.9,0,0,1-.39-2.44,10.52,10.52,0,0,0,.3-1.66c.12-1-.32-1.5-1.36-1.42s-1.86.25-2.81.26c-1.34,0-2.68,0-4-.06-3.34-.26-6.58-1.47-9.77-2.44-2-.6-4-1.18-6-1.7a1.85,1.85,0,0,1-1.16-.66.59.59,0,0,1-.12-.64c.12-.27.37-.23.6-.2a10.17,10.17,0,0,1,2.21.71,59.21,59.21,0,0,0,9.94,2.89c3.4.69,9.17,2.1,11.89-.86a3.58,3.58,0,0,1,1.1-.73,1.57,1.57,0,0,1,2.11.49,3.26,3.26,0,0,1,.61,2.61,21.89,21.89,0,0,0-.18,4.2,3.82,3.82,0,0,0,.28,1.59A21,21,0,0,1,37,30.4a16.19,16.19,0,0,1,8.11-7.71,24.13,24.13,0,0,1,7.06-1.89c.81-.07.84,0,.87.79a5.76,5.76,0,0,0,.11.93c.08.47.34.81.84.73s.34-.56.37-.88,0-.66,0-1c0-.55.24-.77.87-.77s.78.22.74.82c0,.41-.09.83-.11,1.25s.06.56.41.61.39-.2.5-.45A7.3,7.3,0,0,0,57,21.37c.11-.51.41-.63.82-.49s1.12.05,1,.85a3.67,3.67,0,0,0-.14.93c0,.18,0,.34.22.41a.41.41,0,0,0,.4-.12,1.16,1.16,0,0,0,.42-.68c.1-.53.46-.63.89-.5A22,22,0,0,1,66,24a18.5,18.5,0,0,1,6.34,6.22,16,16,0,0,1,1.79,5.39c.06.3,0,.81.33.8s.29-.52.32-.83a8.86,8.86,0,0,0-.92-5.35,2,2,0,0,1,.7-2.4,1.71,1.71,0,0,1,2.19.15,4.46,4.46,0,0,1,.85.83,4.52,4.52,0,0,0,3.16,1.72,34.54,34.54,0,0,0,19.59-1.91c.77-.31,2.08-1.35,2.94-1.15C103.67,27.53,103.76,27.69,103.7,27.9ZM51.47,42.42A1.1,1.1,0,0,0,52,41.3a14.91,14.91,0,0,0-.77-3.55,8.55,8.55,0,0,0-2.71-4.2,6,6,0,0,0-7.83,0,15.76,15.76,0,0,0-4.43,6.65.63.63,0,0,0,.27.76,9.4,9.4,0,0,0,2.63,1.67,18.16,18.16,0,0,0,6.81,1.07c.64,0,1.39,0,2.14-.1A6.53,6.53,0,0,0,51.47,42.42Zm-11.81-.68c0,.12-.17.08-.28.06a1.6,1.6,0,0,1-1.32-2.35,2.38,2.38,0,0,1,.61-1.06,4.51,4.51,0,0,0,.93,3.12A.29.29,0,0,1,39.66,41.74Zm3-5a1.41,1.41,0,0,1-1.25-1.4,1.33,1.33,0,0,1,1.38-1.25A1.3,1.3,0,0,1,44,35.48,1.33,1.33,0,0,1,42.61,36.78Zm27.56-2.22a5.24,5.24,0,0,0-3-1.77,7.12,7.12,0,0,0-6.14,2.06A11.85,11.85,0,0,0,58,41a.8.8,0,0,0,.4.91,16.46,16.46,0,0,0,1.45.88,13,13,0,0,0,5.36,1,16.12,16.12,0,0,0,2.08-.14,8.79,8.79,0,0,0,5.39-2.68A1.58,1.58,0,0,0,73.05,39,16.16,16.16,0,0,0,70.17,34.56ZM64,37.19a1.33,1.33,0,0,1-1.3-1.32A1.39,1.39,0,0,1,64,34.55a1.27,1.27,0,0,1,1.37,1.3A1.26,1.26,0,0,1,64,37.19Zm6.5,4.47c-.21,0-.3-.11-.21-.25.67-1.06.31-2.29.65-3.55a3.74,3.74,0,0,1,.93,2.24A2.4,2.4,0,0,1,70.53,41.66Zm-8.28,4.51a.67.67,0,0,0-.18.07,6.23,6.23,0,0,1-5.16-.12A4.57,4.57,0,0,0,53.34,46a5.36,5.36,0,0,1-3.23.5c-.67-.15-1.35-.26-2-.42-.24-.05-.47-.12-.64.1s0,.39.15.55c.52.71,1,1.45,1.56,2.12a8.16,8.16,0,0,0,6.18,3.22,5.36,5.36,0,0,0,1.2-.11A8.34,8.34,0,0,0,60,50.22a14.82,14.82,0,0,0,3.07-2.9c.24-.32.61-.7.35-1.12S62.64,46.15,62.25,46.17Zm-4.86,4.4a4.77,4.77,0,0,1-2,.37,8,8,0,0,1-2.78-.43c-.33-.14-.67-.28-.69-.7a.82.82,0,0,1,.6-.8,5.69,5.69,0,0,1,4.9.16A.76.76,0,0,1,57.39,50.57Zm-17.5-19c-.12-.11,0-.24,0-.34A3,3,0,0,1,41.41,30a10,10,0,0,1,4.47-.85,6.89,6.89,0,0,1,5.59,3.64c.12.22.42.51.12.72a.8.8,0,0,1-.94-.07,1.3,1.3,0,0,1-.32-.38,6,6,0,0,0-6.61-2.92,8.72,8.72,0,0,0-3,1.26,3,3,0,0,1-.43.25A.26.26,0,0,1,39.89,31.58ZM60,32.88a6.67,6.67,0,0,1,4.76-3.24,2.52,2.52,0,0,1,1-.12A7.06,7.06,0,0,1,70,31.07c.17.14.53.28.33.58s-.46.14-.71,0a7.45,7.45,0,0,0-2.85-1.22,6,6,0,0,0-4.42,1.19,3.89,3.89,0,0,0-1.26,1.29,2.2,2.2,0,0,1-.45.51c-.22.17-.51.35-.75.16S59.89,33.09,60,32.88Zm-6.82,11a3.33,3.33,0,0,0,3.7.18,1.42,1.42,0,0,0,0-2.55A3,3,0,0,0,55.14,41a3,3,0,0,0-1.93.6A1.31,1.31,0,0,0,53.18,43.86Zm1.27-1.77a1.7,1.7,0,0,1,1.06-.25,2.12,2.12,0,0,1,.76.11c.44.15.86.35.86.87s-.42.7-.82.83a2.09,2.09,0,0,1-1.87-.13C53.73,43.1,53.74,42.53,54.45,42.09ZM59.9,26.5c-.15-.23,0-.43.19-.6A3.59,3.59,0,0,1,62.35,25a4.86,4.86,0,0,1,2.41.79,1,1,0,0,1,.43.53.45.45,0,0,1-.08.52c-.19.16-.35,0-.5-.1a3.71,3.71,0,0,0-4.11-.26C60.31,26.54,60.09,26.79,59.9,26.5Zm-7.1,3.19c-.14-.23,0-.44.21-.6A4.88,4.88,0,0,1,56,28a3.31,3.31,0,0,1,2,.72c.23.15.47.38.31.66s-.46.11-.67,0a4,4,0,0,0-4.3.35C53.22,29.82,53,30,52.8,29.69Zm-6.58-3.81a.82.82,0,0,1,.32-.77,3.73,3.73,0,0,1,2.16-.76,3.47,3.47,0,0,1,1.86.61c.22.15.48.37.27.67s-.42,0-.6-.1a3.08,3.08,0,0,0-2.41-.31,2.35,2.35,0,0,0-1.17.8c-.08.09-.14.24-.29.18S46.24,26,46.22,25.88ZM56.4,40.2a.28.28,0,0,1,.26.29c-.07.21-.19.24-.39.16a3.46,3.46,0,0,0-2.27,0c-.19,0-.4.13-.47-.12s.15-.37.36-.39A15,15,0,0,1,56.4,40.2Z"/></svg>